<?xml version="1.0" encoding="UTF-8" standalone="no"?>
<!DOCTYPE svg PUBLIC "-//W3C//DTD SVG 1.1//EN"
 "http://www.w3.org/Graphics/SVG/1.1/DTD/svg11.dtd">
<!-- Generated by graphviz version 2.47.3 (20210619.1520)
 -->
<!-- Title: dependencies Pages: 1 -->
<svg width="764pt" height="174pt"
 viewBox="0.00 0.00 764.00 173.80" xmlns="http://www.w3.org/2000/svg" xmlns:xlink="http://www.w3.org/1999/xlink">
<g id="graph0" class="graph" transform="scale(1 1) rotate(0) translate(4 169.8)">
<title>dependencies</title>
<polygon fill="white" stroke="transparent" points="-4,4 -4,-169.8 760,-169.8 760,4 -4,4"/>
<text text-anchor="middle" x="378" y="-8.2" font-family="sans-serif" font-size="14.00">dependencies</text>
<g id="clust1" class="cluster">
<title>cluster_CocktailModule</title>
<polygon fill="none" stroke="black" stroke-dasharray="1,5" points="8,-32.8 8,-157.8 748,-157.8 748,-32.8 8,-32.8"/>
</g>
<g id="clust2" class="cluster">
<title>cluster_CocktailModule_declarations</title>
<polygon fill="none" stroke="black" points="192,-40.8 192,-92.8 740,-92.8 740,-40.8 192,-40.8"/>
</g>
<g id="clust7" class="cluster">
<title>cluster_CocktailModule_imports</title>
<polygon fill="none" stroke="black" points="16,-40.8 16,-92.8 184,-92.8 184,-40.8 16,-40.8"/>
</g>
<!-- CAddComponent -->
<g id="node1" class="node">
<title>CAddComponent</title>
<polygon fill="#ffffb3" stroke="black" points="732.28,-84.8 617.72,-84.8 617.72,-48.8 732.28,-48.8 732.28,-84.8"/>
<text text-anchor="middle" x="675" y="-62.6" font-family="Times,serif" font-size="14.00">CAddComponent</text>
</g>
<!-- CocktailModule -->
<g id="node5" class="node">
<title>CocktailModule</title>
<polygon fill="#8dd3c7" stroke="black" points="450.49,-149.8 447.49,-153.8 426.49,-153.8 423.49,-149.8 343.51,-149.8 343.51,-113.8 450.49,-113.8 450.49,-149.8"/>
<text text-anchor="middle" x="397" y="-127.6" font-family="Times,serif" font-size="14.00">CocktailModule</text>
</g>
<!-- CAddComponent&#45;&gt;CocktailModule -->
<g id="edge1" class="edge">
<title>CAddComponent&#45;&gt;CocktailModule</title>
<path fill="none" stroke="black" d="M675,-85.08C675,-106.12 675,-137.8 675,-137.8 675,-137.8 460.6,-137.8 460.6,-137.8"/>
<polygon fill="black" stroke="black" points="460.6,-134.3 450.6,-137.8 460.6,-141.3 460.6,-134.3"/>
</g>
<!-- CDeleteComponent -->
<g id="node2" class="node">
<title>CDeleteComponent</title>
<polygon fill="#ffffb3" stroke="black" points="599.7,-84.8 472.3,-84.8 472.3,-48.8 599.7,-48.8 599.7,-84.8"/>
<text text-anchor="middle" x="536" y="-62.6" font-family="Times,serif" font-size="14.00">CDeleteComponent</text>
</g>
<!-- CDeleteComponent&#45;&gt;CocktailModule -->
<g id="edge2" class="edge">
<title>CDeleteComponent&#45;&gt;CocktailModule</title>
<path fill="none" stroke="black" d="M536,-84.82C536,-102.17 536,-125.8 536,-125.8 536,-125.8 460.74,-125.8 460.74,-125.8"/>
<polygon fill="black" stroke="black" points="460.74,-122.3 450.74,-125.8 460.74,-129.3 460.74,-122.3"/>
</g>
<!-- CEditComponent -->
<g id="node3" class="node">
<title>CEditComponent</title>
<polygon fill="#ffffb3" stroke="black" points="454,-84.8 340,-84.8 340,-48.8 454,-48.8 454,-84.8"/>
<text text-anchor="middle" x="397" y="-62.6" font-family="Times,serif" font-size="14.00">CEditComponent</text>
</g>
<!-- CEditComponent&#45;&gt;CocktailModule -->
<g id="edge3" class="edge">
<title>CEditComponent&#45;&gt;CocktailModule</title>
<path fill="none" stroke="black" d="M397,-84.91C397,-84.91 397,-103.79 397,-103.79"/>
<polygon fill="black" stroke="black" points="393.5,-103.79 397,-113.79 400.5,-103.79 393.5,-103.79"/>
</g>
<!-- CIndexComponent -->
<g id="node4" class="node">
<title>CIndexComponent</title>
<polygon fill="#ffffb3" stroke="black" points="322.05,-84.8 199.95,-84.8 199.95,-48.8 322.05,-48.8 322.05,-84.8"/>
<text text-anchor="middle" x="261" y="-62.6" font-family="Times,serif" font-size="14.00">CIndexComponent</text>
</g>
<!-- CIndexComponent&#45;&gt;CocktailModule -->
<g id="edge4" class="edge">
<title>CIndexComponent&#45;&gt;CocktailModule</title>
<path fill="none" stroke="black" d="M261,-84.82C261,-102.17 261,-125.8 261,-125.8 261,-125.8 333.25,-125.8 333.25,-125.8"/>
<polygon fill="black" stroke="black" points="333.25,-129.3 343.25,-125.8 333.25,-122.3 333.25,-129.3"/>
</g>
<!-- CocktailRoutingModule -->
<g id="node6" class="node">
<title>CocktailRoutingModule</title>
<polygon fill="#8dd3c7" stroke="black" points="176.11,-84.8 173.11,-88.8 152.11,-88.8 149.11,-84.8 23.89,-84.8 23.89,-48.8 176.11,-48.8 176.11,-84.8"/>
<text text-anchor="middle" x="100" y="-62.6" font-family="Times,serif" font-size="14.00">CocktailRoutingModule</text>
</g>
<!-- CocktailRoutingModule&#45;&gt;CocktailModule -->
<g id="edge5" class="edge">
<title>CocktailRoutingModule&#45;&gt;CocktailModule</title>
<path fill="none" stroke="black" d="M100,-85.08C100,-106.12 100,-137.8 100,-137.8 100,-137.8 333.22,-137.8 333.22,-137.8"/>
<polygon fill="black" stroke="black" points="333.22,-141.3 343.22,-137.8 333.22,-134.3 333.22,-141.3"/>
</g>
</g>
</svg>
