<?xml version="1.0" encoding="UTF-8" standalone="no"?>
<!DOCTYPE svg PUBLIC "-//W3C//DTD SVG 1.1//EN"
 "http://www.w3.org/Graphics/SVG/1.1/DTD/svg11.dtd">
<!-- Generated by graphviz version 2.47.3 (20210619.1520)
 -->
<!-- Title: dependencies Pages: 1 -->
<svg width="813pt" height="174pt"
 viewBox="0.00 0.00 813.00 173.80" xmlns="http://www.w3.org/2000/svg" xmlns:xlink="http://www.w3.org/1999/xlink">
<g id="graph0" class="graph" transform="scale(1 1) rotate(0) translate(4 169.8)">
<title>dependencies</title>
<polygon fill="white" stroke="transparent" points="-4,4 -4,-169.8 809,-169.8 809,4 -4,4"/>
<text text-anchor="middle" x="402.5" y="-8.2" font-family="sans-serif" font-size="14.00">dependencies</text>
<g id="clust1" class="cluster">
<title>cluster_AdminModule</title>
<polygon fill="none" stroke="black" stroke-dasharray="1,5" points="8,-32.8 8,-157.8 797,-157.8 797,-32.8 8,-32.8"/>
</g>
<g id="clust7" class="cluster">
<title>cluster_AdminModule_imports</title>
<polygon fill="none" stroke="black" points="629,-40.8 629,-92.8 789,-92.8 789,-40.8 629,-40.8"/>
</g>
<g id="clust2" class="cluster">
<title>cluster_AdminModule_declarations</title>
<polygon fill="none" stroke="black" points="16,-40.8 16,-92.8 621,-92.8 621,-40.8 16,-40.8"/>
</g>
<!-- AheaderComponent -->
<g id="node1" class="node">
<title>AheaderComponent</title>
<polygon fill="#ffffb3" stroke="black" points="613.24,-84.8 484.76,-84.8 484.76,-48.8 613.24,-48.8 613.24,-84.8"/>
<text text-anchor="middle" x="549" y="-62.6" font-family="Times,serif" font-size="14.00">AheaderComponent</text>
</g>
<!-- AdminModule -->
<g id="node5" class="node">
<title>AdminModule</title>
<polygon fill="#8dd3c7" stroke="black" points="452.44,-149.8 449.44,-153.8 428.44,-153.8 425.44,-149.8 353.56,-149.8 353.56,-113.8 452.44,-113.8 452.44,-149.8"/>
<text text-anchor="middle" x="403" y="-127.6" font-family="Times,serif" font-size="14.00">AdminModule</text>
</g>
<!-- AheaderComponent&#45;&gt;AdminModule -->
<g id="edge1" class="edge">
<title>AheaderComponent&#45;&gt;AdminModule</title>
<path fill="none" stroke="black" d="M549,-84.82C549,-102.17 549,-125.8 549,-125.8 549,-125.8 462.43,-125.8 462.43,-125.8"/>
<polygon fill="black" stroke="black" points="462.43,-122.3 452.43,-125.8 462.43,-129.3 462.43,-122.3"/>
</g>
<!-- AlayoutComponent -->
<g id="node2" class="node">
<title>AlayoutComponent</title>
<polygon fill="#ffffb3" stroke="black" points="466.44,-84.8 339.56,-84.8 339.56,-48.8 466.44,-48.8 466.44,-84.8"/>
<text text-anchor="middle" x="403" y="-62.6" font-family="Times,serif" font-size="14.00">AlayoutComponent</text>
</g>
<!-- AlayoutComponent&#45;&gt;AdminModule -->
<g id="edge2" class="edge">
<title>AlayoutComponent&#45;&gt;AdminModule</title>
<path fill="none" stroke="black" d="M403,-84.91C403,-84.91 403,-103.79 403,-103.79"/>
<polygon fill="black" stroke="black" points="399.5,-103.79 403,-113.79 406.5,-103.79 399.5,-103.79"/>
</g>
<!-- DashboardComponent -->
<g id="node3" class="node">
<title>DashboardComponent</title>
<polygon fill="#ffffb3" stroke="black" points="321.97,-84.8 180.03,-84.8 180.03,-48.8 321.97,-48.8 321.97,-84.8"/>
<text text-anchor="middle" x="251" y="-62.6" font-family="Times,serif" font-size="14.00">DashboardComponent</text>
</g>
<!-- DashboardComponent&#45;&gt;AdminModule -->
<g id="edge3" class="edge">
<title>DashboardComponent&#45;&gt;AdminModule</title>
<path fill="none" stroke="black" d="M251,-84.82C251,-102.17 251,-125.8 251,-125.8 251,-125.8 343.65,-125.8 343.65,-125.8"/>
<polygon fill="black" stroke="black" points="343.65,-129.3 353.65,-125.8 343.65,-122.3 343.65,-129.3"/>
</g>
<!-- SidemenuComponent -->
<g id="node4" class="node">
<title>SidemenuComponent</title>
<polygon fill="#ffffb3" stroke="black" points="161.83,-84.8 24.17,-84.8 24.17,-48.8 161.83,-48.8 161.83,-84.8"/>
<text text-anchor="middle" x="93" y="-62.6" font-family="Times,serif" font-size="14.00">SidemenuComponent</text>
</g>
<!-- SidemenuComponent&#45;&gt;AdminModule -->
<g id="edge4" class="edge">
<title>SidemenuComponent&#45;&gt;AdminModule</title>
<path fill="none" stroke="black" d="M93,-85.08C93,-106.12 93,-137.8 93,-137.8 93,-137.8 343.54,-137.8 343.54,-137.8"/>
<polygon fill="black" stroke="black" points="343.54,-141.3 353.54,-137.8 343.54,-134.3 343.54,-141.3"/>
</g>
<!-- AdminRoutingModule -->
<g id="node6" class="node">
<title>AdminRoutingModule</title>
<polygon fill="#8dd3c7" stroke="black" points="780.56,-84.8 777.56,-88.8 756.56,-88.8 753.56,-84.8 637.44,-84.8 637.44,-48.8 780.56,-48.8 780.56,-84.8"/>
<text text-anchor="middle" x="709" y="-62.6" font-family="Times,serif" font-size="14.00">AdminRoutingModule</text>
</g>
<!-- AdminRoutingModule&#45;&gt;AdminModule -->
<g id="edge5" class="edge">
<title>AdminRoutingModule&#45;&gt;AdminModule</title>
<path fill="none" stroke="black" d="M709,-85.08C709,-106.12 709,-137.8 709,-137.8 709,-137.8 462.5,-137.8 462.5,-137.8"/>
<polygon fill="black" stroke="black" points="462.5,-134.3 452.5,-137.8 462.5,-141.3 462.5,-134.3"/>
</g>
</g>
</svg>
