<?xml version="1.0" encoding="UTF-8" standalone="no"?>
<!DOCTYPE svg PUBLIC "-//W3C//DTD SVG 1.1//EN"
 "http://www.w3.org/Graphics/SVG/1.1/DTD/svg11.dtd">
<!-- Generated by graphviz version 2.47.3 (20210619.1520)
 -->
<!-- Title: dependencies Pages: 1 -->
<svg width="911pt" height="174pt"
 viewBox="0.00 0.00 911.00 173.80" xmlns="http://www.w3.org/2000/svg" xmlns:xlink="http://www.w3.org/1999/xlink">
<g id="graph0" class="graph" transform="scale(1 1) rotate(0) translate(4 169.8)">
<title>dependencies</title>
<polygon fill="white" stroke="transparent" points="-4,4 -4,-169.8 907,-169.8 907,4 -4,4"/>
<text text-anchor="middle" x="451.5" y="-8.2" font-family="sans-serif" font-size="14.00">dependencies</text>
<g id="clust1" class="cluster">
<title>cluster_PublicModule</title>
<polygon fill="none" stroke="black" stroke-dasharray="1,5" points="8,-32.8 8,-157.8 895,-157.8 895,-32.8 8,-32.8"/>
</g>
<g id="clust2" class="cluster">
<title>cluster_PublicModule_declarations</title>
<polygon fill="none" stroke="black" points="180,-40.8 180,-92.8 887,-92.8 887,-40.8 180,-40.8"/>
</g>
<g id="clust8" class="cluster">
<title>cluster_PublicModule_imports</title>
<polygon fill="none" stroke="black" points="16,-40.8 16,-92.8 172,-92.8 172,-40.8 16,-40.8"/>
</g>
<!-- CocktailComponent -->
<g id="node1" class="node">
<title>CocktailComponent</title>
<polygon fill="#ffffb3" stroke="black" points="879.27,-84.8 750.73,-84.8 750.73,-48.8 879.27,-48.8 879.27,-84.8"/>
<text text-anchor="middle" x="815" y="-62.6" font-family="Times,serif" font-size="14.00">CocktailComponent</text>
</g>
<!-- PublicModule -->
<g id="node6" class="node">
<title>PublicModule</title>
<polygon fill="#8dd3c7" stroke="black" points="509.83,-149.8 506.83,-153.8 485.83,-153.8 482.83,-149.8 414.17,-149.8 414.17,-113.8 509.83,-113.8 509.83,-149.8"/>
<text text-anchor="middle" x="462" y="-127.6" font-family="Times,serif" font-size="14.00">PublicModule</text>
</g>
<!-- CocktailComponent&#45;&gt;PublicModule -->
<g id="edge1" class="edge">
<title>CocktailComponent&#45;&gt;PublicModule</title>
<path fill="none" stroke="black" d="M815,-85.08C815,-106.12 815,-137.8 815,-137.8 815,-137.8 519.97,-137.8 519.97,-137.8"/>
<polygon fill="black" stroke="black" points="519.97,-134.3 509.97,-137.8 519.97,-141.3 519.97,-134.3"/>
</g>
<!-- ContactComponent -->
<g id="node2" class="node">
<title>ContactComponent</title>
<polygon fill="#ffffb3" stroke="black" points="732.38,-84.8 607.62,-84.8 607.62,-48.8 732.38,-48.8 732.38,-84.8"/>
<text text-anchor="middle" x="670" y="-62.6" font-family="Times,serif" font-size="14.00">ContactComponent</text>
</g>
<!-- ContactComponent&#45;&gt;PublicModule -->
<g id="edge2" class="edge">
<title>ContactComponent&#45;&gt;PublicModule</title>
<path fill="none" stroke="black" d="M670,-84.82C670,-102.17 670,-125.8 670,-125.8 670,-125.8 519.72,-125.8 519.72,-125.8"/>
<polygon fill="black" stroke="black" points="519.72,-122.3 509.72,-125.8 519.72,-129.3 519.72,-122.3"/>
</g>
<!-- HomeComponent -->
<g id="node3" class="node">
<title>HomeComponent</title>
<polygon fill="#ffffb3" stroke="black" points="589.55,-84.8 474.45,-84.8 474.45,-48.8 589.55,-48.8 589.55,-84.8"/>
<text text-anchor="middle" x="532" y="-62.6" font-family="Times,serif" font-size="14.00">HomeComponent</text>
</g>
<!-- HomeComponent&#45;&gt;PublicModule -->
<g id="edge3" class="edge">
<title>HomeComponent&#45;&gt;PublicModule</title>
<path fill="none" stroke="black" d="M491.95,-84.91C491.95,-84.91 491.95,-103.79 491.95,-103.79"/>
<polygon fill="black" stroke="black" points="488.45,-103.79 491.95,-113.79 495.45,-103.79 488.45,-103.79"/>
</g>
<!-- PheaderComponent -->
<g id="node4" class="node">
<title>PheaderComponent</title>
<polygon fill="#ffffb3" stroke="black" points="456.42,-84.8 329.58,-84.8 329.58,-48.8 456.42,-48.8 456.42,-84.8"/>
<text text-anchor="middle" x="393" y="-62.6" font-family="Times,serif" font-size="14.00">PheaderComponent</text>
</g>
<!-- PheaderComponent&#45;&gt;PublicModule -->
<g id="edge4" class="edge">
<title>PheaderComponent&#45;&gt;PublicModule</title>
<path fill="none" stroke="black" d="M435.27,-84.91C435.27,-84.91 435.27,-103.79 435.27,-103.79"/>
<polygon fill="black" stroke="black" points="431.77,-103.79 435.27,-113.79 438.77,-103.79 431.77,-103.79"/>
</g>
<!-- PlayoutComponent -->
<g id="node5" class="node">
<title>PlayoutComponent</title>
<polygon fill="#ffffb3" stroke="black" points="312.11,-84.8 187.89,-84.8 187.89,-48.8 312.11,-48.8 312.11,-84.8"/>
<text text-anchor="middle" x="250" y="-62.6" font-family="Times,serif" font-size="14.00">PlayoutComponent</text>
</g>
<!-- PlayoutComponent&#45;&gt;PublicModule -->
<g id="edge5" class="edge">
<title>PlayoutComponent&#45;&gt;PublicModule</title>
<path fill="none" stroke="black" d="M250,-84.82C250,-102.17 250,-125.8 250,-125.8 250,-125.8 404.16,-125.8 404.16,-125.8"/>
<polygon fill="black" stroke="black" points="404.16,-129.3 414.16,-125.8 404.16,-122.3 404.16,-129.3"/>
</g>
<!-- PublicRoutingModule -->
<g id="node7" class="node">
<title>PublicRoutingModule</title>
<polygon fill="#8dd3c7" stroke="black" points="164.45,-84.8 161.45,-88.8 140.45,-88.8 137.45,-84.8 23.55,-84.8 23.55,-48.8 164.45,-48.8 164.45,-84.8"/>
<text text-anchor="middle" x="94" y="-62.6" font-family="Times,serif" font-size="14.00">PublicRoutingModule</text>
</g>
<!-- PublicRoutingModule&#45;&gt;PublicModule -->
<g id="edge6" class="edge">
<title>PublicRoutingModule&#45;&gt;PublicModule</title>
<path fill="none" stroke="black" d="M94,-85.08C94,-106.12 94,-137.8 94,-137.8 94,-137.8 404.27,-137.8 404.27,-137.8"/>
<polygon fill="black" stroke="black" points="404.27,-141.3 414.27,-137.8 404.27,-134.3 404.27,-141.3"/>
</g>
</g>
</svg>
