<?xml version="1.0" encoding="UTF-8" standalone="no"?>
<!DOCTYPE svg PUBLIC "-//W3C//DTD SVG 1.1//EN"
 "http://www.w3.org/Graphics/SVG/1.1/DTD/svg11.dtd">
<!-- Generated by graphviz version 2.47.3 (20210619.1520)
 -->
<!-- Title: dependencies Pages: 1 -->
<svg width="4064pt" height="247pt"
 viewBox="0.00 0.00 4064.00 246.80" xmlns="http://www.w3.org/2000/svg" xmlns:xlink="http://www.w3.org/1999/xlink">
<g id="graph0" class="graph" transform="scale(1 1) rotate(0) translate(4 242.8)">
<title>dependencies</title>
<polygon fill="white" stroke="transparent" points="-4,4 -4,-242.8 4060,-242.8 4060,4 -4,4"/>
<text text-anchor="middle" x="2028" y="-8.2" font-family="sans-serif" font-size="14.00">dependencies</text>
<g id="clust1" class="cluster">
<title>cluster_AdminModule</title>
<polygon fill="none" stroke="black" stroke-dasharray="1,5" points="8,-32.8 8,-157.8 797,-157.8 797,-32.8 8,-32.8"/>
</g>
<g id="clust2" class="cluster">
<title>cluster_AdminModule_declarations</title>
<polygon fill="none" stroke="black" points="184,-40.8 184,-92.8 789,-92.8 789,-40.8 184,-40.8"/>
</g>
<g id="clust7" class="cluster">
<title>cluster_AdminModule_imports</title>
<polygon fill="none" stroke="black" points="16,-40.8 16,-92.8 176,-92.8 176,-40.8 16,-40.8"/>
</g>
<g id="clust17" class="cluster">
<title>cluster_AppModule</title>
<polygon fill="none" stroke="black" stroke-dasharray="1,5" points="805,-32.8 805,-230.8 1223,-230.8 1223,-32.8 805,-32.8"/>
</g>
<g id="clust18" class="cluster">
<title>cluster_AppModule_declarations</title>
<polygon fill="none" stroke="black" points="965,-40.8 965,-92.8 1215,-92.8 1215,-40.8 965,-40.8"/>
</g>
<g id="clust21" class="cluster">
<title>cluster_AppModule_imports</title>
<polygon fill="none" stroke="black" points="813,-40.8 813,-92.8 957,-92.8 957,-40.8 813,-40.8"/>
</g>
<g id="clust23" class="cluster">
<title>cluster_AppModule_bootstrap</title>
<polygon fill="none" stroke="black" points="966,-170.8 966,-222.8 1090,-222.8 1090,-170.8 966,-170.8"/>
</g>
<g id="clust31" class="cluster">
<title>cluster_AuthModule</title>
<polygon fill="none" stroke="black" stroke-dasharray="1,5" points="1231,-32.8 1231,-157.8 1673,-157.8 1673,-32.8 1231,-32.8"/>
</g>
<g id="clust32" class="cluster">
<title>cluster_AuthModule_declarations</title>
<polygon fill="none" stroke="black" points="1395,-40.8 1395,-92.8 1665,-92.8 1665,-40.8 1395,-40.8"/>
</g>
<g id="clust35" class="cluster">
<title>cluster_AuthModule_imports</title>
<polygon fill="none" stroke="black" points="1239,-40.8 1239,-92.8 1387,-92.8 1387,-40.8 1239,-40.8"/>
</g>
<g id="clust45" class="cluster">
<title>cluster_CocktailModule</title>
<polygon fill="none" stroke="black" stroke-dasharray="1,5" points="1681,-32.8 1681,-157.8 2421,-157.8 2421,-32.8 1681,-32.8"/>
</g>
<g id="clust46" class="cluster">
<title>cluster_CocktailModule_declarations</title>
<polygon fill="none" stroke="black" points="1865,-40.8 1865,-92.8 2413,-92.8 2413,-40.8 1865,-40.8"/>
</g>
<g id="clust51" class="cluster">
<title>cluster_CocktailModule_imports</title>
<polygon fill="none" stroke="black" points="1689,-40.8 1689,-92.8 1857,-92.8 1857,-40.8 1689,-40.8"/>
</g>
<g id="clust61" class="cluster">
<title>cluster_PublicModule</title>
<polygon fill="none" stroke="black" stroke-dasharray="1,5" points="2429,-32.8 2429,-157.8 3316,-157.8 3316,-32.8 2429,-32.8"/>
</g>
<g id="clust62" class="cluster">
<title>cluster_PublicModule_declarations</title>
<polygon fill="none" stroke="black" points="2601,-40.8 2601,-92.8 3308,-92.8 3308,-40.8 2601,-40.8"/>
</g>
<g id="clust68" class="cluster">
<title>cluster_PublicModule_imports</title>
<polygon fill="none" stroke="black" points="2437,-40.8 2437,-92.8 2593,-92.8 2593,-40.8 2437,-40.8"/>
</g>
<g id="clust78" class="cluster">
<title>cluster_UserModule</title>
<polygon fill="none" stroke="black" stroke-dasharray="1,5" points="3324,-32.8 3324,-157.8 4048,-157.8 4048,-32.8 3324,-32.8"/>
</g>
<g id="clust79" class="cluster">
<title>cluster_UserModule_declarations</title>
<polygon fill="none" stroke="black" points="3488,-40.8 3488,-92.8 4040,-92.8 4040,-40.8 3488,-40.8"/>
</g>
<g id="clust84" class="cluster">
<title>cluster_UserModule_imports</title>
<polygon fill="none" stroke="black" points="3332,-40.8 3332,-92.8 3480,-92.8 3480,-40.8 3332,-40.8"/>
</g>
<!-- AheaderComponent -->
<g id="node1" class="node">
<title>AheaderComponent</title>
<polygon fill="#ffffb3" stroke="black" points="781.24,-84.8 652.76,-84.8 652.76,-48.8 781.24,-48.8 781.24,-84.8"/>
<text text-anchor="middle" x="717" y="-62.6" font-family="Times,serif" font-size="14.00">AheaderComponent</text>
</g>
<!-- AdminModule -->
<g id="node5" class="node">
<title>AdminModule</title>
<polygon fill="#8dd3c7" stroke="black" points="468.44,-149.8 465.44,-153.8 444.44,-153.8 441.44,-149.8 369.56,-149.8 369.56,-113.8 468.44,-113.8 468.44,-149.8"/>
<text text-anchor="middle" x="419" y="-127.6" font-family="Times,serif" font-size="14.00">AdminModule</text>
</g>
<!-- AheaderComponent&#45;&gt;AdminModule -->
<g id="edge1" class="edge">
<title>AheaderComponent&#45;&gt;AdminModule</title>
<path fill="none" stroke="black" d="M717,-84.91C717,-104.14 717,-131.8 717,-131.8 717,-131.8 478.54,-131.8 478.54,-131.8"/>
<polygon fill="black" stroke="black" points="478.54,-128.3 468.54,-131.8 478.54,-135.3 478.54,-128.3"/>
</g>
<!-- AlayoutComponent -->
<g id="node2" class="node">
<title>AlayoutComponent</title>
<polygon fill="#ffffb3" stroke="black" points="634.44,-84.8 507.56,-84.8 507.56,-48.8 634.44,-48.8 634.44,-84.8"/>
<text text-anchor="middle" x="571" y="-62.6" font-family="Times,serif" font-size="14.00">AlayoutComponent</text>
</g>
<!-- AlayoutComponent&#45;&gt;AdminModule -->
<g id="edge2" class="edge">
<title>AlayoutComponent&#45;&gt;AdminModule</title>
<path fill="none" stroke="black" d="M571,-84.83C571,-101.2 571,-122.8 571,-122.8 571,-122.8 478.35,-122.8 478.35,-122.8"/>
<polygon fill="black" stroke="black" points="478.35,-119.3 468.35,-122.8 478.35,-126.3 478.35,-119.3"/>
</g>
<!-- DashboardComponent -->
<g id="node3" class="node">
<title>DashboardComponent</title>
<polygon fill="#ffffb3" stroke="black" points="489.97,-84.8 348.03,-84.8 348.03,-48.8 489.97,-48.8 489.97,-84.8"/>
<text text-anchor="middle" x="419" y="-62.6" font-family="Times,serif" font-size="14.00">DashboardComponent</text>
</g>
<!-- DashboardComponent&#45;&gt;AdminModule -->
<g id="edge3" class="edge">
<title>DashboardComponent&#45;&gt;AdminModule</title>
<path fill="none" stroke="black" d="M419,-84.91C419,-84.91 419,-103.79 419,-103.79"/>
<polygon fill="black" stroke="black" points="415.5,-103.79 419,-113.79 422.5,-103.79 415.5,-103.79"/>
</g>
<!-- SidemenuComponent -->
<g id="node4" class="node">
<title>SidemenuComponent</title>
<polygon fill="#ffffb3" stroke="black" points="329.83,-84.8 192.17,-84.8 192.17,-48.8 329.83,-48.8 329.83,-84.8"/>
<text text-anchor="middle" x="261" y="-62.6" font-family="Times,serif" font-size="14.00">SidemenuComponent</text>
</g>
<!-- SidemenuComponent&#45;&gt;AdminModule -->
<g id="edge4" class="edge">
<title>SidemenuComponent&#45;&gt;AdminModule</title>
<path fill="none" stroke="black" d="M261,-84.82C261,-102.17 261,-125.8 261,-125.8 261,-125.8 359.44,-125.8 359.44,-125.8"/>
<polygon fill="black" stroke="black" points="359.44,-129.3 369.44,-125.8 359.44,-122.3 359.44,-129.3"/>
</g>
<!-- AdminRoutingModule -->
<g id="node6" class="node">
<title>AdminRoutingModule</title>
<polygon fill="#8dd3c7" stroke="black" points="167.56,-84.8 164.56,-88.8 143.56,-88.8 140.56,-84.8 24.44,-84.8 24.44,-48.8 167.56,-48.8 167.56,-84.8"/>
<text text-anchor="middle" x="96" y="-62.6" font-family="Times,serif" font-size="14.00">AdminRoutingModule</text>
</g>
<!-- AdminRoutingModule&#45;&gt;AdminModule -->
<g id="edge5" class="edge">
<title>AdminRoutingModule&#45;&gt;AdminModule</title>
<path fill="none" stroke="black" d="M96,-85.08C96,-106.12 96,-137.8 96,-137.8 96,-137.8 359.59,-137.8 359.59,-137.8"/>
<polygon fill="black" stroke="black" points="359.59,-141.3 369.59,-137.8 359.59,-134.3 359.59,-141.3"/>
</g>
<!-- AppComponent -->
<g id="node7" class="node">
<title>AppComponent</title>
<polygon fill="#ffffb3" stroke="black" points="1206.94,-84.8 1101.06,-84.8 1101.06,-48.8 1206.94,-48.8 1206.94,-84.8"/>
<text text-anchor="middle" x="1154" y="-62.6" font-family="Times,serif" font-size="14.00">AppComponent</text>
</g>
<!-- AppModule -->
<g id="node9" class="node">
<title>AppModule</title>
<polygon fill="#8dd3c7" stroke="black" points="1069.66,-149.8 1066.66,-153.8 1045.66,-153.8 1042.66,-149.8 986.34,-149.8 986.34,-113.8 1069.66,-113.8 1069.66,-149.8"/>
<text text-anchor="middle" x="1028" y="-127.6" font-family="Times,serif" font-size="14.00">AppModule</text>
</g>
<!-- AppComponent&#45;&gt;AppModule -->
<g id="edge6" class="edge">
<title>AppComponent&#45;&gt;AppModule</title>
<path fill="none" stroke="black" d="M1154,-85.08C1154,-106.12 1154,-137.8 1154,-137.8 1154,-137.8 1079.96,-137.8 1079.96,-137.8"/>
<polygon fill="black" stroke="black" points="1079.96,-134.3 1069.96,-137.8 1079.96,-141.3 1079.96,-134.3"/>
</g>
<!-- ErrorComponent -->
<g id="node8" class="node">
<title>ErrorComponent</title>
<polygon fill="#ffffb3" stroke="black" points="1083.37,-84.8 972.63,-84.8 972.63,-48.8 1083.37,-48.8 1083.37,-84.8"/>
<text text-anchor="middle" x="1028" y="-62.6" font-family="Times,serif" font-size="14.00">ErrorComponent</text>
</g>
<!-- ErrorComponent&#45;&gt;AppModule -->
<g id="edge7" class="edge">
<title>ErrorComponent&#45;&gt;AppModule</title>
<path fill="none" stroke="black" d="M1028,-84.91C1028,-84.91 1028,-103.79 1028,-103.79"/>
<polygon fill="black" stroke="black" points="1024.5,-103.79 1028,-113.79 1031.5,-103.79 1024.5,-103.79"/>
</g>
<!-- AppComponent  -->
<g id="node11" class="node">
<title>AppComponent </title>
<polygon fill="#80b1d3" stroke="black" points="1082.44,-214.8 973.56,-214.8 973.56,-178.8 1082.44,-178.8 1082.44,-214.8"/>
<text text-anchor="middle" x="1028" y="-192.6" font-family="Times,serif" font-size="14.00">AppComponent </text>
</g>
<!-- AppModule&#45;&gt;AppComponent  -->
<g id="edge9" class="edge">
<title>AppModule&#45;&gt;AppComponent </title>
<path fill="none" stroke="black" stroke-dasharray="1,5" d="M1028,-149.91C1028,-149.91 1028,-168.79 1028,-168.79"/>
<polygon fill="black" stroke="black" points="1024.5,-168.79 1028,-178.79 1031.5,-168.79 1024.5,-168.79"/>
</g>
<!-- AppRoutingModule -->
<g id="node10" class="node">
<title>AppRoutingModule</title>
<polygon fill="#8dd3c7" stroke="black" points="949.27,-84.8 946.27,-88.8 925.27,-88.8 922.27,-84.8 820.73,-84.8 820.73,-48.8 949.27,-48.8 949.27,-84.8"/>
<text text-anchor="middle" x="885" y="-62.6" font-family="Times,serif" font-size="14.00">AppRoutingModule</text>
</g>
<!-- AppRoutingModule&#45;&gt;AppModule -->
<g id="edge8" class="edge">
<title>AppRoutingModule&#45;&gt;AppModule</title>
<path fill="none" stroke="black" d="M885,-85.09C885,-107.01 885,-140.8 885,-140.8 885,-140.8 976.25,-140.8 976.25,-140.8"/>
<polygon fill="black" stroke="black" points="976.25,-144.3 986.25,-140.8 976.25,-137.3 976.25,-144.3"/>
</g>
<!-- LoginComponent -->
<g id="node12" class="node">
<title>LoginComponent</title>
<polygon fill="#ffffb3" stroke="black" points="1657.28,-84.8 1542.72,-84.8 1542.72,-48.8 1657.28,-48.8 1657.28,-84.8"/>
<text text-anchor="middle" x="1600" y="-62.6" font-family="Times,serif" font-size="14.00">LoginComponent</text>
</g>
<!-- AuthModule -->
<g id="node14" class="node">
<title>AuthModule</title>
<polygon fill="#8dd3c7" stroke="black" points="1507.55,-149.8 1504.55,-153.8 1483.55,-153.8 1480.55,-149.8 1420.45,-149.8 1420.45,-113.8 1507.55,-113.8 1507.55,-149.8"/>
<text text-anchor="middle" x="1464" y="-127.6" font-family="Times,serif" font-size="14.00">AuthModule</text>
</g>
<!-- LoginComponent&#45;&gt;AuthModule -->
<g id="edge10" class="edge">
<title>LoginComponent&#45;&gt;AuthModule</title>
<path fill="none" stroke="black" d="M1600,-84.83C1600,-101.2 1600,-122.8 1600,-122.8 1600,-122.8 1517.78,-122.8 1517.78,-122.8"/>
<polygon fill="black" stroke="black" points="1517.78,-119.3 1507.78,-122.8 1517.78,-126.3 1517.78,-119.3"/>
</g>
<!-- LogoutComponent -->
<g id="node13" class="node">
<title>LogoutComponent</title>
<polygon fill="#ffffb3" stroke="black" points="1524.78,-84.8 1403.22,-84.8 1403.22,-48.8 1524.78,-48.8 1524.78,-84.8"/>
<text text-anchor="middle" x="1464" y="-62.6" font-family="Times,serif" font-size="14.00">LogoutComponent</text>
</g>
<!-- LogoutComponent&#45;&gt;AuthModule -->
<g id="edge11" class="edge">
<title>LogoutComponent&#45;&gt;AuthModule</title>
<path fill="none" stroke="black" d="M1464,-84.91C1464,-84.91 1464,-103.79 1464,-103.79"/>
<polygon fill="black" stroke="black" points="1460.5,-103.79 1464,-113.79 1467.5,-103.79 1460.5,-103.79"/>
</g>
<!-- AuthRoutingModule -->
<g id="node15" class="node">
<title>AuthRoutingModule</title>
<polygon fill="#8dd3c7" stroke="black" points="1379.17,-84.8 1376.17,-88.8 1355.17,-88.8 1352.17,-84.8 1246.83,-84.8 1246.83,-48.8 1379.17,-48.8 1379.17,-84.8"/>
<text text-anchor="middle" x="1313" y="-62.6" font-family="Times,serif" font-size="14.00">AuthRoutingModule</text>
</g>
<!-- AuthRoutingModule&#45;&gt;AuthModule -->
<g id="edge12" class="edge">
<title>AuthRoutingModule&#45;&gt;AuthModule</title>
<path fill="none" stroke="black" d="M1313,-84.82C1313,-102.17 1313,-125.8 1313,-125.8 1313,-125.8 1410.32,-125.8 1410.32,-125.8"/>
<polygon fill="black" stroke="black" points="1410.32,-129.3 1420.32,-125.8 1410.32,-122.3 1410.32,-129.3"/>
</g>
<!-- CAddComponent -->
<g id="node16" class="node">
<title>CAddComponent</title>
<polygon fill="#ffffb3" stroke="black" points="2405.28,-84.8 2290.72,-84.8 2290.72,-48.8 2405.28,-48.8 2405.28,-84.8"/>
<text text-anchor="middle" x="2348" y="-62.6" font-family="Times,serif" font-size="14.00">CAddComponent</text>
</g>
<!-- CocktailModule -->
<g id="node20" class="node">
<title>CocktailModule</title>
<polygon fill="#8dd3c7" stroke="black" points="2123.49,-149.8 2120.49,-153.8 2099.49,-153.8 2096.49,-149.8 2016.51,-149.8 2016.51,-113.8 2123.49,-113.8 2123.49,-149.8"/>
<text text-anchor="middle" x="2070" y="-127.6" font-family="Times,serif" font-size="14.00">CocktailModule</text>
</g>
<!-- CAddComponent&#45;&gt;CocktailModule -->
<g id="edge13" class="edge">
<title>CAddComponent&#45;&gt;CocktailModule</title>
<path fill="none" stroke="black" d="M2348,-84.81C2348,-107.29 2348,-142.8 2348,-142.8 2348,-142.8 2133.6,-142.8 2133.6,-142.8"/>
<polygon fill="black" stroke="black" points="2133.6,-139.3 2123.6,-142.8 2133.6,-146.3 2133.6,-139.3"/>
</g>
<!-- CDeleteComponent -->
<g id="node17" class="node">
<title>CDeleteComponent</title>
<polygon fill="#ffffb3" stroke="black" points="2272.7,-84.8 2145.3,-84.8 2145.3,-48.8 2272.7,-48.8 2272.7,-84.8"/>
<text text-anchor="middle" x="2209" y="-62.6" font-family="Times,serif" font-size="14.00">CDeleteComponent</text>
</g>
<!-- CDeleteComponent&#45;&gt;CocktailModule -->
<g id="edge14" class="edge">
<title>CDeleteComponent&#45;&gt;CocktailModule</title>
<path fill="none" stroke="black" d="M2209,-84.93C2209,-105.37 2209,-135.8 2209,-135.8 2209,-135.8 2133.74,-135.8 2133.74,-135.8"/>
<polygon fill="black" stroke="black" points="2133.74,-132.3 2123.74,-135.8 2133.74,-139.3 2133.74,-132.3"/>
</g>
<!-- CEditComponent -->
<g id="node18" class="node">
<title>CEditComponent</title>
<polygon fill="#ffffb3" stroke="black" points="2127,-84.8 2013,-84.8 2013,-48.8 2127,-48.8 2127,-84.8"/>
<text text-anchor="middle" x="2070" y="-62.6" font-family="Times,serif" font-size="14.00">CEditComponent</text>
</g>
<!-- CEditComponent&#45;&gt;CocktailModule -->
<g id="edge15" class="edge">
<title>CEditComponent&#45;&gt;CocktailModule</title>
<path fill="none" stroke="black" d="M2070,-84.91C2070,-84.91 2070,-103.79 2070,-103.79"/>
<polygon fill="black" stroke="black" points="2066.5,-103.79 2070,-113.79 2073.5,-103.79 2066.5,-103.79"/>
</g>
<!-- CIndexComponent -->
<g id="node19" class="node">
<title>CIndexComponent</title>
<polygon fill="#ffffb3" stroke="black" points="1995.05,-84.8 1872.95,-84.8 1872.95,-48.8 1995.05,-48.8 1995.05,-84.8"/>
<text text-anchor="middle" x="1934" y="-62.6" font-family="Times,serif" font-size="14.00">CIndexComponent</text>
</g>
<!-- CIndexComponent&#45;&gt;CocktailModule -->
<g id="edge16" class="edge">
<title>CIndexComponent&#45;&gt;CocktailModule</title>
<path fill="none" stroke="black" d="M1934,-84.91C1934,-104.14 1934,-131.8 1934,-131.8 1934,-131.8 2006.25,-131.8 2006.25,-131.8"/>
<polygon fill="black" stroke="black" points="2006.25,-135.3 2016.25,-131.8 2006.25,-128.3 2006.25,-135.3"/>
</g>
<!-- CocktailRoutingModule -->
<g id="node21" class="node">
<title>CocktailRoutingModule</title>
<polygon fill="#8dd3c7" stroke="black" points="1849.11,-84.8 1846.11,-88.8 1825.11,-88.8 1822.11,-84.8 1696.89,-84.8 1696.89,-48.8 1849.11,-48.8 1849.11,-84.8"/>
<text text-anchor="middle" x="1773" y="-62.6" font-family="Times,serif" font-size="14.00">CocktailRoutingModule</text>
</g>
<!-- CocktailRoutingModule&#45;&gt;CocktailModule -->
<g id="edge17" class="edge">
<title>CocktailRoutingModule&#45;&gt;CocktailModule</title>
<path fill="none" stroke="black" d="M1773,-85.09C1773,-107.01 1773,-140.8 1773,-140.8 1773,-140.8 2006.22,-140.8 2006.22,-140.8"/>
<polygon fill="black" stroke="black" points="2006.22,-144.3 2016.22,-140.8 2006.22,-137.3 2006.22,-144.3"/>
</g>
<!-- CocktailComponent -->
<g id="node22" class="node">
<title>CocktailComponent</title>
<polygon fill="#ffffb3" stroke="black" points="3300.27,-84.8 3171.73,-84.8 3171.73,-48.8 3300.27,-48.8 3300.27,-84.8"/>
<text text-anchor="middle" x="3236" y="-62.6" font-family="Times,serif" font-size="14.00">CocktailComponent</text>
</g>
<!-- PublicModule -->
<g id="node27" class="node">
<title>PublicModule</title>
<polygon fill="#8dd3c7" stroke="black" points="2930.83,-149.8 2927.83,-153.8 2906.83,-153.8 2903.83,-149.8 2835.17,-149.8 2835.17,-113.8 2930.83,-113.8 2930.83,-149.8"/>
<text text-anchor="middle" x="2883" y="-127.6" font-family="Times,serif" font-size="14.00">PublicModule</text>
</g>
<!-- CocktailComponent&#45;&gt;PublicModule -->
<g id="edge18" class="edge">
<title>CocktailComponent&#45;&gt;PublicModule</title>
<path fill="none" stroke="black" d="M3236,-85.07C3236,-103.36 3236,-128.8 3236,-128.8 3236,-128.8 2940.97,-128.8 2940.97,-128.8"/>
<polygon fill="black" stroke="black" points="2940.97,-125.3 2930.97,-128.8 2940.97,-132.3 2940.97,-125.3"/>
</g>
<!-- ContactComponent -->
<g id="node23" class="node">
<title>ContactComponent</title>
<polygon fill="#ffffb3" stroke="black" points="3153.38,-84.8 3028.62,-84.8 3028.62,-48.8 3153.38,-48.8 3153.38,-84.8"/>
<text text-anchor="middle" x="3091" y="-62.6" font-family="Times,serif" font-size="14.00">ContactComponent</text>
</g>
<!-- ContactComponent&#45;&gt;PublicModule -->
<g id="edge19" class="edge">
<title>ContactComponent&#45;&gt;PublicModule</title>
<path fill="none" stroke="black" d="M3091,-84.81C3091,-100.85 3091,-121.8 3091,-121.8 3091,-121.8 2940.72,-121.8 2940.72,-121.8"/>
<polygon fill="black" stroke="black" points="2940.72,-118.3 2930.72,-121.8 2940.72,-125.3 2940.72,-118.3"/>
</g>
<!-- HomeComponent -->
<g id="node24" class="node">
<title>HomeComponent</title>
<polygon fill="#ffffb3" stroke="black" points="3010.55,-84.8 2895.45,-84.8 2895.45,-48.8 3010.55,-48.8 3010.55,-84.8"/>
<text text-anchor="middle" x="2953" y="-62.6" font-family="Times,serif" font-size="14.00">HomeComponent</text>
</g>
<!-- HomeComponent&#45;&gt;PublicModule -->
<g id="edge20" class="edge">
<title>HomeComponent&#45;&gt;PublicModule</title>
<path fill="none" stroke="black" d="M2912.95,-84.91C2912.95,-84.91 2912.95,-103.79 2912.95,-103.79"/>
<polygon fill="black" stroke="black" points="2909.45,-103.79 2912.95,-113.79 2916.45,-103.79 2909.45,-103.79"/>
</g>
<!-- PheaderComponent -->
<g id="node25" class="node">
<title>PheaderComponent</title>
<polygon fill="#ffffb3" stroke="black" points="2877.42,-84.8 2750.58,-84.8 2750.58,-48.8 2877.42,-48.8 2877.42,-84.8"/>
<text text-anchor="middle" x="2814" y="-62.6" font-family="Times,serif" font-size="14.00">PheaderComponent</text>
</g>
<!-- PheaderComponent&#45;&gt;PublicModule -->
<g id="edge21" class="edge">
<title>PheaderComponent&#45;&gt;PublicModule</title>
<path fill="none" stroke="black" d="M2856.27,-84.91C2856.27,-84.91 2856.27,-103.79 2856.27,-103.79"/>
<polygon fill="black" stroke="black" points="2852.77,-103.79 2856.27,-113.79 2859.77,-103.79 2852.77,-103.79"/>
</g>
<!-- PlayoutComponent -->
<g id="node26" class="node">
<title>PlayoutComponent</title>
<polygon fill="#ffffb3" stroke="black" points="2733.11,-84.8 2608.89,-84.8 2608.89,-48.8 2733.11,-48.8 2733.11,-84.8"/>
<text text-anchor="middle" x="2671" y="-62.6" font-family="Times,serif" font-size="14.00">PlayoutComponent</text>
</g>
<!-- PlayoutComponent&#45;&gt;PublicModule -->
<g id="edge22" class="edge">
<title>PlayoutComponent&#45;&gt;PublicModule</title>
<path fill="none" stroke="black" d="M2671,-84.81C2671,-100.85 2671,-121.8 2671,-121.8 2671,-121.8 2825.16,-121.8 2825.16,-121.8"/>
<polygon fill="black" stroke="black" points="2825.16,-125.3 2835.16,-121.8 2825.16,-118.3 2825.16,-125.3"/>
</g>
<!-- PublicRoutingModule -->
<g id="node28" class="node">
<title>PublicRoutingModule</title>
<polygon fill="#8dd3c7" stroke="black" points="2585.45,-84.8 2582.45,-88.8 2561.45,-88.8 2558.45,-84.8 2444.55,-84.8 2444.55,-48.8 2585.45,-48.8 2585.45,-84.8"/>
<text text-anchor="middle" x="2515" y="-62.6" font-family="Times,serif" font-size="14.00">PublicRoutingModule</text>
</g>
<!-- PublicRoutingModule&#45;&gt;PublicModule -->
<g id="edge23" class="edge">
<title>PublicRoutingModule&#45;&gt;PublicModule</title>
<path fill="none" stroke="black" d="M2515,-85.07C2515,-103.36 2515,-128.8 2515,-128.8 2515,-128.8 2825.27,-128.8 2825.27,-128.8"/>
<polygon fill="black" stroke="black" points="2825.27,-132.3 2835.27,-128.8 2825.27,-125.3 2825.27,-132.3"/>
</g>
<!-- UAddComponent -->
<g id="node29" class="node">
<title>UAddComponent</title>
<polygon fill="#ffffb3" stroke="black" points="4031.55,-84.8 3916.45,-84.8 3916.45,-48.8 4031.55,-48.8 4031.55,-84.8"/>
<text text-anchor="middle" x="3974" y="-62.6" font-family="Times,serif" font-size="14.00">UAddComponent</text>
</g>
<!-- UserModule -->
<g id="node33" class="node">
<title>UserModule</title>
<polygon fill="#8dd3c7" stroke="black" points="3737.98,-149.8 3734.98,-153.8 3713.98,-153.8 3710.98,-149.8 3652.02,-149.8 3652.02,-113.8 3737.98,-113.8 3737.98,-149.8"/>
<text text-anchor="middle" x="3695" y="-127.6" font-family="Times,serif" font-size="14.00">UserModule</text>
</g>
<!-- UAddComponent&#45;&gt;UserModule -->
<g id="edge24" class="edge">
<title>UAddComponent&#45;&gt;UserModule</title>
<path fill="none" stroke="black" d="M3974,-85.08C3974,-106.12 3974,-137.8 3974,-137.8 3974,-137.8 3747.98,-137.8 3747.98,-137.8"/>
<polygon fill="black" stroke="black" points="3747.98,-134.3 3737.98,-137.8 3747.98,-141.3 3747.98,-134.3"/>
</g>
<!-- UDeleteComponent -->
<g id="node30" class="node">
<title>UDeleteComponent</title>
<polygon fill="#ffffb3" stroke="black" points="3897.97,-84.8 3770.03,-84.8 3770.03,-48.8 3897.97,-48.8 3897.97,-84.8"/>
<text text-anchor="middle" x="3834" y="-62.6" font-family="Times,serif" font-size="14.00">UDeleteComponent</text>
</g>
<!-- UDeleteComponent&#45;&gt;UserModule -->
<g id="edge25" class="edge">
<title>UDeleteComponent&#45;&gt;UserModule</title>
<path fill="none" stroke="black" d="M3834,-84.82C3834,-102.17 3834,-125.8 3834,-125.8 3834,-125.8 3748.22,-125.8 3748.22,-125.8"/>
<polygon fill="black" stroke="black" points="3748.22,-122.3 3738.22,-125.8 3748.22,-129.3 3748.22,-122.3"/>
</g>
<!-- UEditComponent -->
<g id="node31" class="node">
<title>UEditComponent</title>
<polygon fill="#ffffb3" stroke="black" points="3752.27,-84.8 3637.73,-84.8 3637.73,-48.8 3752.27,-48.8 3752.27,-84.8"/>
<text text-anchor="middle" x="3695" y="-62.6" font-family="Times,serif" font-size="14.00">UEditComponent</text>
</g>
<!-- UEditComponent&#45;&gt;UserModule -->
<g id="edge26" class="edge">
<title>UEditComponent&#45;&gt;UserModule</title>
<path fill="none" stroke="black" d="M3695,-84.91C3695,-84.91 3695,-103.79 3695,-103.79"/>
<polygon fill="black" stroke="black" points="3691.5,-103.79 3695,-113.79 3698.5,-103.79 3691.5,-103.79"/>
</g>
<!-- UIndexComponent -->
<g id="node32" class="node">
<title>UIndexComponent</title>
<polygon fill="#ffffb3" stroke="black" points="3619.81,-84.8 3496.19,-84.8 3496.19,-48.8 3619.81,-48.8 3619.81,-84.8"/>
<text text-anchor="middle" x="3558" y="-62.6" font-family="Times,serif" font-size="14.00">UIndexComponent</text>
</g>
<!-- UIndexComponent&#45;&gt;UserModule -->
<g id="edge27" class="edge">
<title>UIndexComponent&#45;&gt;UserModule</title>
<path fill="none" stroke="black" d="M3558,-84.93C3558,-105.37 3558,-135.8 3558,-135.8 3558,-135.8 3641.65,-135.8 3641.65,-135.8"/>
<polygon fill="black" stroke="black" points="3641.65,-139.3 3651.65,-135.8 3641.65,-132.3 3641.65,-139.3"/>
</g>
<!-- UserRoutingModule -->
<g id="node34" class="node">
<title>UserRoutingModule</title>
<polygon fill="#8dd3c7" stroke="black" points="3471.59,-84.8 3468.59,-88.8 3447.59,-88.8 3444.59,-84.8 3340.41,-84.8 3340.41,-48.8 3471.59,-48.8 3471.59,-84.8"/>
<text text-anchor="middle" x="3406" y="-62.6" font-family="Times,serif" font-size="14.00">UserRoutingModule</text>
</g>
<!-- UserRoutingModule&#45;&gt;UserModule -->
<g id="edge28" class="edge">
<title>UserRoutingModule&#45;&gt;UserModule</title>
<path fill="none" stroke="black" d="M3406,-84.81C3406,-107.29 3406,-142.8 3406,-142.8 3406,-142.8 3641.73,-142.8 3641.73,-142.8"/>
<polygon fill="black" stroke="black" points="3641.73,-146.3 3651.73,-142.8 3641.73,-139.3 3641.73,-146.3"/>
</g>
</g>
</svg>
